<svg width="62.618164" height="62.000000" viewBox="0 0 62.6182 62" fill="none" xmlns="http://www.w3.org/2000/svg" xmlns:xlink="http://www.w3.org/1999/xlink">
	<desc>
			Created with Pixso.
	</desc>
	<defs>
		<clipPath id="clip14_190">
			<rect id="Frame" width="62.618183" height="62.000000" fill="white" fill-opacity="0"/>
		</clipPath>
	</defs>
	<rect id="Frame" width="62.618183" height="62.000000" fill="#FFFFFF" fill-opacity="0"/>
	<g clip-path="url(#clip14_190)">
		<path id="Vector" d="M9.78418 23.25L41.0933 23.25C44.3354 23.25 46.9637 25.8523 46.9637 29.0625L46.9637 42.625C46.9637 45.8352 44.3354 48.4375 41.0933 48.4375L9.78418 48.4375C6.54199 48.4375 3.9137 45.8352 3.9137 42.625L3.9137 29.0625C3.9137 25.8523 6.54199 23.25 9.78418 23.25Z" fill="#FF3D00" fill-opacity="1.000000" fill-rule="evenodd"/>
		<path id="Vector" d="M58.7046 44.5625L46.9636 38.75L46.9636 32.9375L58.7046 27.125L58.7046 44.5625Z" fill="#FF3D00" fill-opacity="1.000000" fill-rule="nonzero"/>
		<path id="Vector" d="M43.05 11.625C43.05 15.9052 39.5457 19.375 35.2228 19.375C30.8999 19.375 27.3955 15.9052 27.3955 11.625C27.3955 7.34485 30.8999 3.875 35.2228 3.875C39.5457 3.875 43.05 7.34485 43.05 11.625Z" fill="#FF3D00" fill-opacity="1.000000" fill-rule="evenodd"/>
		<path id="Vector" d="M21.525 13.5625C21.525 16.7727 18.8967 19.375 15.6545 19.375C12.4124 19.375 9.78406 16.7727 9.78406 13.5625C9.78406 10.3523 12.4124 7.75 15.6545 7.75C18.8967 7.75 21.525 10.3523 21.525 13.5625Z" fill="#FF3D00" fill-opacity="1.000000" fill-rule="evenodd"/>
		<path id="Vector" d="M59.2191 26.3015C59.0771 26.215 58.9153 26.1656 58.7488 26.1582C58.5822 26.1508 58.4164 26.1854 58.2672 26.2589L47.942 31.3701L47.942 29.0625C47.9399 27.2646 47.2177 25.541 45.9337 24.2697C44.6498 22.9984 42.9089 22.2833 41.0931 22.2812L9.78406 22.2812C7.96826 22.2833 6.22742 22.9984 4.94348 24.2697C3.65955 25.541 2.93726 27.2646 2.93518 29.0625L2.93518 42.625C2.93726 44.4229 3.65955 46.1465 4.94348 47.4178C6.22742 48.6891 7.96826 49.4042 9.78406 49.4062L23.0767 49.4062L14.9628 57.4401C14.7845 57.6228 14.6859 57.8676 14.6881 58.1215C14.6904 58.3755 14.7933 58.6185 14.9747 58.7981C15.1561 58.9778 15.4015 59.0796 15.6581 59.0818C15.9146 59.084 16.1617 58.9863 16.3462 58.8099L25.4386 49.8074L34.531 58.8099C34.7155 58.9863 34.9626 59.084 35.2191 59.0818C35.4757 59.0796 35.7211 58.9778 35.9025 58.7981C36.0839 58.6185 36.1868 58.3755 36.1891 58.1215C36.1913 57.8676 36.0927 57.6228 35.9144 57.4401L27.8004 49.4062L41.0931 49.4062C42.9089 49.4042 44.6498 48.6891 45.9337 47.4178C47.2177 46.1465 47.9399 44.4229 47.942 42.625L47.942 40.3174L58.2672 45.4296C58.4164 45.5034 58.5822 45.5382 58.7488 45.5308C58.9154 45.5232 59.0773 45.4738 59.2191 45.3868C59.3611 45.2999 59.4781 45.1786 59.5592 45.0343C59.6404 44.8901 59.683 44.7277 59.6829 44.5625L59.6829 27.125C59.6829 26.96 59.6401 26.7977 59.5591 26.6537C59.4779 26.5095 59.3608 26.3883 59.2191 26.3015ZM45.9852 42.625C45.9836 43.9092 45.4678 45.1403 44.5507 46.0483C43.6335 46.9564 42.3901 47.4672 41.0931 47.4688L9.78406 47.4688C8.48706 47.4672 7.24365 46.9564 6.32654 46.0483C5.40942 45.1403 4.89355 43.9092 4.89197 42.625L4.89197 29.0625C4.89355 27.7783 5.40942 26.5472 6.32654 25.6392C7.24365 24.7311 8.48706 24.2203 9.78406 24.2188L41.0931 24.2188C42.3901 24.2203 43.6335 24.7311 44.5507 25.6392C45.4678 26.5472 45.9836 27.7783 45.9852 29.0625L45.9852 42.625ZM57.7261 42.9951L47.942 38.1514L47.942 33.5361L57.7261 28.6924L57.7261 42.9951ZM35.2227 20.3438C36.9642 20.3438 38.6667 19.8324 40.1149 18.8744C41.563 17.9164 42.6915 16.5547 43.358 14.9615C44.0245 13.3684 44.199 11.6154 43.8591 9.92407C43.5194 8.23279 42.6808 6.6792 41.4492 5.45996C40.2178 4.2406 38.6487 3.41016 36.9406 3.07373C35.2324 2.73743 33.4619 2.91003 31.8529 3.56995C30.2439 4.22986 28.8687 5.34729 27.901 6.78113C26.9335 8.21497 26.417 9.90063 26.417 11.625C26.4196 13.9365 27.3481 16.1527 28.999 17.7872C30.6498 19.4218 32.8881 20.3412 35.2227 20.3438ZM35.2227 4.84375C36.5773 4.84375 37.9014 5.24146 39.0277 5.98657C40.1541 6.73169 41.0319 7.79077 41.5502 9.02991C42.0686 10.269 42.2042 11.6326 41.9399 12.948C41.6757 14.2634 41.0234 15.4717 40.0656 16.42C39.1078 17.3684 37.8873 18.0143 36.5588 18.276C35.2302 18.5376 33.8531 18.4033 32.6017 17.89C31.3502 17.3768 30.2806 16.5077 29.5281 15.3925C28.7755 14.2773 28.3738 12.9662 28.3738 11.625C28.3759 9.82715 29.0981 8.10352 30.3821 6.83215C31.666 5.56091 33.4069 4.84583 35.2227 4.84375ZM15.6545 20.3438C17.009 20.3438 18.3333 19.946 19.4595 19.2009C20.5858 18.4558 21.4636 17.3967 21.9821 16.1576C22.5004 14.9185 22.636 13.5549 22.3718 12.2395C22.1075 10.9241 21.4552 9.71582 20.4974 8.76746C19.5396 7.81909 18.3192 7.17322 16.9906 6.9115C15.6621 6.6499 14.285 6.78418 13.0336 7.29749C11.7821 7.81067 10.7124 8.67993 9.95984 9.79504C9.20728 10.9102 8.80566 12.2213 8.80566 13.5625C8.80774 15.3604 9.52991 17.084 10.814 18.3553C12.0979 19.6266 13.8387 20.3417 15.6545 20.3438ZM15.6545 8.71875C16.6221 8.71875 17.5679 9.00281 18.3723 9.53503C19.1769 10.0673 19.804 10.8239 20.1742 11.7089C20.5444 12.594 20.6414 13.5679 20.4525 14.5074C20.2638 15.447 19.7979 16.3102 19.1136 16.9875C18.4296 17.6649 17.5579 18.1263 16.6089 18.3132C15.6599 18.5001 14.6763 18.4042 13.7823 18.0376C12.8885 17.6709 12.1245 17.05 11.5869 16.2535C11.0493 15.457 10.7625 14.5205 10.7625 13.5625C10.764 12.2783 11.2799 11.0472 12.197 10.1392C13.1141 9.23108 14.3575 8.72034 15.6545 8.71875Z" fill="#FFFFFF" fill-opacity="1.000000" fill-rule="nonzero"/>
	</g>
</svg>
